<?xml version="1.0"?><svg xmlns="http://www.w3.org/2000/svg" viewBox="0 0 8 8" shape-rendering="crispEdges"><rect x="0" y="0" width="1" height="1" fill="rgba(46,26,0,255)"/><rect x="0" y="1" width="1" height="1" fill="rgba(46,26,0,255)"/><rect x="0" y="2" width="1" height="1" fill="rgba(46,26,0,255)"/><rect x="0" y="3" width="1" height="1" fill="rgba(46,26,0,255)"/><rect x="0" y="4" width="1" height="1" fill="rgba(158,90,0,255)"/><rect x="0" y="5" width="1" height="1" fill="rgba(158,90,0,255)"/><rect x="0" y="6" width="1" height="1" fill="rgba(158,90,0,255)"/><rect x="0" y="7" width="1" height="1" fill="rgba(158,90,0,255)"/><rect x="1" y="0" width="1" height="1" fill="rgba(46,26,0,255)"/><rect x="1" y="1" width="1" height="1" fill="rgba(46,26,0,255)"/><rect x="1" y="2" width="1" height="1" fill="rgba(46,26,0,255)"/><rect x="1" y="3" width="1" height="1" fill="rgba(158,90,0,255)"/><rect x="1" y="4" width="1" height="1" fill="rgba(46,26,0,255)"/><rect x="1" y="5" width="1" height="1" fill="rgba(232,232,232,255)"/><rect x="1" y="6" width="1" height="1" fill="rgba(181,181,181,255)"/><rect x="1" y="7" width="1" height="1" fill="rgba(122,27,27,255)"/><rect x="2" y="0" width="1" height="1" fill="rgba(46,26,0,255)"/><rect x="2" y="1" width="1" height="1" fill="rgba(46,26,0,255)"/><rect x="2" y="2" width="1" height="1" fill="rgba(46,26,0,255)"/><rect x="2" y="3" width="1" height="1" fill="rgba(158,90,0,255)"/><rect x="2" y="4" width="1" height="1" fill="rgba(46,26,0,255)"/><rect x="2" y="5" width="1" height="1" fill="rgba(59,32,5,255)"/><rect x="2" y="6" width="1" height="1" fill="rgba(25,14,2,255)"/><rect x="2" y="7" width="1" height="1" fill="rgba(135,30,30,255)"/><rect x="3" y="0" width="1" height="1" fill="rgba(46,26,0,255)"/><rect x="3" y="1" width="1" height="1" fill="rgba(46,26,0,255)"/><rect x="3" y="2" width="1" height="1" fill="rgba(46,26,0,255)"/><rect x="3" y="3" width="1" height="1" fill="rgba(158,90,0,255)"/><rect x="3" y="4" width="1" height="1" fill="rgba(158,90,0,255)"/><rect x="3" y="5" width="1" height="1" fill="rgba(158,90,0,255)"/><rect x="3" y="6" width="1" height="1" fill="rgba(158,90,0,255)"/><rect x="3" y="7" width="1" height="1" fill="rgba(158,90,0,255)"/><rect x="4" y="0" width="1" height="1" fill="rgba(46,26,0,255)"/><rect x="4" y="1" width="1" height="1" fill="rgba(46,26,0,255)"/><rect x="4" y="2" width="1" height="1" fill="rgba(46,26,0,255)"/><rect x="4" y="3" width="1" height="1" fill="rgba(158,90,0,255)"/><rect x="4" y="4" width="1" height="1" fill="rgba(158,90,0,255)"/><rect x="4" y="5" width="1" height="1" fill="rgba(158,90,0,255)"/><rect x="4" y="6" width="1" height="1" fill="rgba(158,90,0,255)"/><rect x="4" y="7" width="1" height="1" fill="rgba(158,90,0,255)"/><rect x="5" y="0" width="1" height="1" fill="rgba(46,26,0,255)"/><rect x="5" y="1" width="1" height="1" fill="rgba(46,26,0,255)"/><rect x="5" y="2" width="1" height="1" fill="rgba(46,26,0,255)"/><rect x="5" y="3" width="1" height="1" fill="rgba(158,90,0,255)"/><rect x="5" y="4" width="1" height="1" fill="rgba(46,26,0,255)"/><rect x="5" y="5" width="1" height="1" fill="rgba(133,133,133,255)"/><rect x="5" y="6" width="1" height="1" fill="rgba(125,125,125,255)"/><rect x="5" y="7" width="1" height="1" fill="rgba(158,90,0,255)"/><rect x="6" y="0" width="1" height="1" fill="rgba(46,26,0,255)"/><rect x="6" y="1" width="1" height="1" fill="rgba(46,26,0,255)"/><rect x="6" y="2" width="1" height="1" fill="rgba(46,26,0,255)"/><rect x="6" y="3" width="1" height="1" fill="rgba(158,90,0,255)"/><rect x="6" y="4" width="1" height="1" fill="rgba(46,26,0,255)"/><rect x="6" y="5" width="1" height="1" fill="rgba(232,232,232,255)"/><rect x="6" y="6" width="1" height="1" fill="rgba(181,181,181,255)"/><rect x="6" y="7" width="1" height="1" fill="rgba(105,60,0,255)"/><rect x="7" y="0" width="1" height="1" fill="rgba(46,26,0,255)"/><rect x="7" y="1" width="1" height="1" fill="rgba(46,26,0,255)"/><rect x="7" y="2" width="1" height="1" fill="rgba(46,26,0,255)"/><rect x="7" y="3" width="1" height="1" fill="rgba(46,26,0,255)"/><rect x="7" y="4" width="1" height="1" fill="rgba(158,90,0,255)"/><rect x="7" y="5" width="1" height="1" fill="rgba(158,90,0,255)"/><rect x="7" y="6" width="1" height="1" fill="rgba(158,90,0,255)"/><rect x="7" y="7" width="1" height="1" fill="rgba(158,90,0,255)"/><rect x="0" y="0" width="1" height="1" fill="rgba(0,0,0,0)"/><rect x="0" y="1" width="1" height="1" fill="rgba(0,0,0,0)"/><rect x="0" y="2" width="1" height="1" fill="rgba(92,52,0,255)"/><rect x="0" y="3" width="1" height="1" fill="rgba(105,60,0,255)"/><rect x="0" y="4" width="1" height="1" fill="rgba(0,0,0,0)"/><rect x="0" y="5" width="1" height="1" fill="rgba(0,0,0,0)"/><rect x="0" y="6" width="1" height="1" fill="rgba(0,0,0,0)"/><rect x="0" y="7" width="1" height="1" fill="rgba(0,0,0,0)"/><rect x="1" y="0" width="1" height="1" fill="rgba(28,16,0,255)"/><rect x="1" y="1" width="1" height="1" fill="rgba(92,52,0,255)"/><rect x="1" y="2" width="1" height="1" fill="rgba(105,60,0,255)"/><rect x="1" y="3" width="1" height="1" fill="rgba(0,0,0,0)"/><rect x="1" y="4" width="1" height="1" fill="rgba(0,0,0,0)"/><rect x="1" y="5" width="1" height="1" fill="rgba(0,0,0,0)"/><rect x="1" y="6" width="1" height="1" fill="rgba(0,0,0,0)"/><rect x="1" y="7" width="1" height="1" fill="rgba(0,0,0,0)"/><rect x="2" y="0" width="1" height="1" fill="rgba(74,42,0,255)"/><rect x="2" y="1" width="1" height="1" fill="rgba(105,60,0,255)"/><rect x="2" y="2" width="1" height="1" fill="rgba(0,0,0,0)"/><rect x="2" y="3" width="1" height="1" fill="rgba(0,0,0,0)"/><rect x="2" y="4" width="1" height="1" fill="rgba(0,0,0,0)"/><rect x="2" y="5" width="1" height="1" fill="rgba(0,0,0,0)"/><rect x="2" y="6" width="1" height="1" fill="rgba(0,0,0,0)"/><rect x="2" y="7" width="1" height="1" fill="rgba(0,0,0,0)"/><rect x="3" y="0" width="1" height="1" fill="rgba(0,0,0,0)"/><rect x="3" y="1" width="1" height="1" fill="rgba(0,0,0,0)"/><rect x="3" y="2" width="1" height="1" fill="rgba(0,0,0,0)"/><rect x="3" y="3" width="1" height="1" fill="rgba(105,60,0,255)"/><rect x="3" y="4" width="1" height="1" fill="rgba(0,0,0,0)"/><rect x="3" y="5" width="1" height="1" fill="rgba(0,0,0,0)"/><rect x="3" y="6" width="1" height="1" fill="rgba(0,0,0,0)"/><rect x="3" y="7" width="1" height="1" fill="rgba(0,0,0,0)"/><rect x="4" y="0" width="1" height="1" fill="rgba(46,26,0,255)"/><rect x="4" y="1" width="1" height="1" fill="rgba(105,60,0,255)"/><rect x="4" y="2" width="1" height="1" fill="rgba(0,0,0,0)"/><rect x="4" y="3" width="1" height="1" fill="rgba(0,0,0,0)"/><rect x="4" y="4" width="1" height="1" fill="rgba(0,0,0,0)"/><rect x="4" y="5" width="1" height="1" fill="rgba(0,0,0,0)"/><rect x="4" y="6" width="1" height="1" fill="rgba(0,0,0,0)"/><rect x="4" y="7" width="1" height="1" fill="rgba(0,0,0,0)"/><rect x="5" y="0" width="1" height="1" fill="rgba(46,26,0,255)"/><rect x="5" y="1" width="1" height="1" fill="rgba(0,0,0,0)"/><rect x="5" y="2" width="1" height="1" fill="rgba(105,60,0,255)"/><rect x="5" y="3" width="1" height="1" fill="rgba(0,0,0,0)"/><rect x="5" y="4" width="1" height="1" fill="rgba(0,0,0,0)"/><rect x="5" y="5" width="1" height="1" fill="rgba(0,0,0,0)"/><rect x="5" y="6" width="1" height="1" fill="rgba(0,0,0,0)"/><rect x="5" y="7" width="1" height="1" fill="rgba(0,0,0,0)"/><rect x="6" y="0" width="1" height="1" fill="rgba(0,0,0,0)"/><rect x="6" y="1" width="1" height="1" fill="rgba(28,16,0,255)"/><rect x="6" y="2" width="1" height="1" fill="rgba(105,60,0,255)"/><rect x="6" y="3" width="1" height="1" fill="rgba(105,60,0,255)"/><rect x="6" y="4" width="1" height="1" fill="rgba(0,0,0,0)"/><rect x="6" y="5" width="1" height="1" fill="rgba(0,0,0,0)"/><rect x="6" y="6" width="1" height="1" fill="rgba(0,0,0,0)"/><rect x="6" y="7" width="1" height="1" fill="rgba(0,0,0,0)"/><rect x="7" y="0" width="1" height="1" fill="rgba(74,42,0,255)"/><rect x="7" y="1" width="1" height="1" fill="rgba(0,0,0,0)"/><rect x="7" y="2" width="1" height="1" fill="rgba(28,16,0,255)"/><rect x="7" y="3" width="1" height="1" fill="rgba(0,0,0,0)"/><rect x="7" y="4" width="1" height="1" fill="rgba(0,0,0,0)"/><rect x="7" y="5" width="1" height="1" fill="rgba(0,0,0,0)"/><rect x="7" y="6" width="1" height="1" fill="rgba(0,0,0,0)"/><rect x="7" y="7" width="1" height="1" fill="rgba(0,0,0,0)"/></svg>